<svg xmlns="http://www.w3.org/2000/svg" xmlns:xlink="http://www.w3.org/1999/xlink" version="1.1" width="256" height="256" viewBox="0 0 256 256" xml:space="preserve">

<defs>
</defs>
<g style="stroke: none; stroke-width: 0; stroke-dasharray: none; stroke-linecap: butt; stroke-linejoin: miter; stroke-miterlimit: 10; fill: none; fill-rule: nonzero; opacity: 1;" transform="translate(1.4065934065934016 1.4065934065934016) scale(2.81 2.81)" >
	<path d="M 78.979 76.74 H 11.021 c -2.45 0 -4.443 -1.994 -4.443 -4.444 c 0 -3.465 1.511 -6.741 4.145 -8.99 c 2.188 -1.869 3.443 -4.592 3.443 -7.47 V 30.835 C 14.165 13.833 27.998 0 45 0 c 17.003 0 30.835 13.833 30.835 30.835 v 25.001 c 0 2.878 1.255 5.601 3.443 7.47 c 2.634 2.249 4.145 5.525 4.145 8.99 C 83.423 74.746 81.43 76.74 78.979 76.74 z M 45 2 C 29.101 2 16.165 14.936 16.165 30.835 v 25.001 c 0 3.464 -1.511 6.741 -4.145 8.991 c -2.188 1.868 -3.443 4.591 -3.443 7.469 c 0 1.348 1.096 2.444 2.443 2.444 h 67.959 c 1.348 0 2.443 -1.097 2.443 -2.444 c 0 -2.879 -1.255 -5.601 -3.443 -7.469 c -2.634 -2.251 -4.145 -5.527 -4.145 -8.991 V 30.835 C 73.835 14.936 60.899 2 45 2 z" style="stroke: none; stroke-width: 1; stroke-dasharray: none; stroke-linecap: butt; stroke-linejoin: miter; stroke-miterlimit: 10; fill: rgb(0,0,0); fill-rule: nonzero; opacity: 1;" transform=" matrix(1 0 0 1 0 0) " stroke-linecap="round" />
	<path d="M 45 90 c -7.816 0 -14.175 -6.358 -14.175 -14.175 c 0 -0.026 0.003 -0.096 0.005 -0.121 c 0.042 -0.535 0.507 -0.931 1.037 -0.942 c 0.537 0.021 0.962 0.441 0.962 0.979 c 0 0.026 -0.003 0.094 -0.005 0.12 C 32.825 82.538 38.287 88 45 88 c 6.713 0 12.175 -5.462 12.175 -12.175 c 0 -0.553 0.445 -1.042 0.998 -1.042 s 0.998 0.404 0.998 0.957 C 59.175 83.642 52.816 90 45 90 z" style="stroke: none; stroke-width: 1; stroke-dasharray: none; stroke-linecap: butt; stroke-linejoin: miter; stroke-miterlimit: 10; fill: rgb(0,0,0); fill-rule: nonzero; opacity: 1;" transform=" matrix(1 0 0 1 0 0) " stroke-linecap="round" />
</g>
</svg>